# xmcd CD database file
# Copyright (C) 1997 Ti Kan
# 
# Track frame offsets:
#     150
#     16180
#     34147
#     53487
#     74772
#     97272
#     117640
#     141595
#     163300
#     179137
#     193770
#     210747
#     227892
#     248657
#     268157
#     285860
#     304337
# 
# Disc length: 4279 seconds
# 
# Revision: 1
# Processed by: cddbd v1.4b41PL1 Copyright (c) Steve Scherf et al.
# Submitted via: DiscPlay 4.0.3
# 
DISCID=1010b511
DTITLE=Diversos - O Melhor das Sapecadas
DYEAR=1900
DGENRE=
TTITLE0=Quero-Quero Gralha Azul
TTITLE1=Milonga da Coragem
TTITLE2=Canta Catarina
TTITLE3=Tropeiros
TTITLE4=Perdidos Num Baile de Fronteira
TTITLE5=Am rica
TTITLE6=Hay Chamam 
TTITLE7=Do Fundo da Alma
TTITLE8=Princesa da Serra
TTITLE9=Chamam  Missioneiro
TTITLE10=Tauras Nativos
TTITLE11=N o da Nada
TTITLE12=Aonde Cata a Gralha Azul
TTITLE13=Um Chamam  e Nada Mais
TTITLE14=Um Mate pra ela
TTITLE15=De Qualquer Vaneira
TTITLE16=Carina
EXTD=
EXTT0=
EXTT1=
EXTT2=
EXTT3=
EXTT4=
EXTT5=
EXTT6=
EXTT7=
EXTT8=
EXTT9=
EXTT10=
EXTT11=
EXTT12=
EXTT13=
EXTT14=
EXTT15=
EXTT16=
PLAYORDER=
